<?xml version="1.0" encoding="UTF-8"?>
<svg width="19px" height="16px" viewBox="0 0 19 16" version="1.1" xmlns="http://www.w3.org/2000/svg" xmlns:xlink="http://www.w3.org/1999/xlink">
    <!-- Generator: sketchtool 55.2 (78181) - https://sketchapp.com -->
    <title>62DB1EE1-5275-4212-9814-D65B41846A01</title>
    <desc>Created with sketchtool.</desc>
    <defs>
        <path d="M10.2061919,14.1812502 C10.3978007,13.6760418 11.8593748,11.9354168 11.8593748,8.87500006 C11.8593748,7.14895835 10.3632666,5.74999998 8.51736097,5.74999998 C6.67145533,5.74999998 5.17534715,7.14895835 5.17534715,8.87500006 C5.17534715,11.9354168 6.6380352,13.6760418 6.82852998,14.1812502 C5.12298893,14.3270835 1.83333333,15.3447919 1.83333333,17.2083336 C1.83333333,17.6479169 2.20763888,18.25 2.94733794,18.25 L14.087384,18.25 C14.8270831,18.25 15.2013886,17.6479169 15.2013886,17.2083336 C15.2013886,15.3447919 11.911733,14.3270835 10.2061919,14.1812502 Z M15.9232642,10.9989581 C16.1917393,10.2406248 17.4293984,8.1177082 17.4293984,6.79166657 C17.4293984,5.06562496 15.9321762,3.66666667 14.0873846,3.66666667 C13.1516208,3.66666667 12.3060913,4.02708332 11.7000728,4.60624997 C13.1404807,5.54999994 14.0873846,7.11041656 14.0873846,8.87499984 C14.0873846,10.4593748 13.7565253,11.7697914 13.3688517,12.7791664 C14.2322052,13.098958 15.0699367,13.5322914 15.7595055,14.083333 L18.543403,14.083333 C19.1872977,14.083333 19.6574076,13.611458 19.6574076,13.0416664 C19.6574076,11.7312498 16.9592885,11.1781248 15.9232642,10.9989581 Z" id="path-1"></path>
    </defs>
    <g id="Page-1" stroke="none" stroke-width="1" fill="none" fill-rule="evenodd">
        <g id="HOME" transform="translate(-1334.000000, -31.000000)">
            <g id="Button-/-Login-/-Default" transform="translate(1324.000000, 19.000000)">
                <g id="Icon-/-Login" transform="translate(9.000000, 9.000000)">
                    <mask id="mask-2" fill="white">
                        <use xlink:href="#path-1"></use>
                    </mask>
                    <use id="Icon-Login" fill="#FFFFFF" fill-rule="nonzero" xlink:href="#path-1"></use>
                </g>
            </g>
        </g>
    </g>
</svg>