<?xml version="1.0" encoding="UTF-8"?>
<svg width="98px" height="37px" viewBox="0 0 98 37" version="1.1" xmlns="http://www.w3.org/2000/svg" xmlns:xlink="http://www.w3.org/1999/xlink">
    <!-- Generator: sketchtool 55.2 (78181) - https://sketchapp.com -->
    <title>ECA0DF80-DC6F-492E-9BFC-11DB185D8EA6</title>
    <desc>Created with sketchtool.</desc>
    <g id="Subir" stroke="none" stroke-width="1" fill="none" fill-rule="evenodd">
        <g id="HOME" transform="translate(-20.000000, -20.000000)" fill-rule="nonzero">
            <g id="Logotipo" transform="translate(20.000000, 20.000000)">
                <path d="M26.6665413,23.9588894 C26.6665413,25.6036003 26.409362,27.1850293 25.8949958,28.7032239 C25.3806295,30.2214186 24.6332023,31.5577261 23.6526917,32.7121866 C22.672181,33.8666471 21.4746901,34.7917831 20.060183,35.4876223 C18.6456758,36.1834615 17.0383054,36.5313759 15.2380236,36.5313759 C13.6306291,36.5313759 12.1116641,36.207183 10.681083,35.5587874 C9.25050189,34.9103917 8.14945318,33.9852557 7.37790383,32.7833517 L7.28146064,32.7833517 L7.28146064,35.8671691 L0,35.8671691 L0,0 L7.90834136,0 L7.90834136,14.7548804 L8.00478454,14.7548804 C8.67989023,13.964154 9.62823875,13.2366967 10.8498586,12.5724865 C12.0714784,11.9082764 13.5663328,11.5761763 15.3344668,11.5761763 C17.0704528,11.5761763 18.6376389,11.9082764 20.0360722,12.5724865 C21.4345054,13.2366967 22.6239594,14.1381112 23.6044701,15.2767572 C24.5849807,16.4154032 25.3404448,17.7358964 25.870885,19.2382765 C26.4013252,20.7406567 26.6665413,22.3141785 26.6665413,23.9588894 Z M19.0475295,23.9588894 C19.0475295,23.1997921 18.9269767,22.4565204 18.6858675,21.7290522 C18.4447584,21.0015839 18.0831,20.3611052 17.6008817,19.8075967 C17.1186633,19.2540882 16.5239363,18.803381 15.8166827,18.4554613 C15.1094291,18.1075417 14.2896702,17.9335846 13.3573814,17.9335846 C12.4572405,17.9335846 11.6535553,18.1075417 10.9463018,18.4554613 C10.2390482,18.803381 9.63628429,19.2619954 9.13799199,19.8313184 C8.6396997,20.4006414 8.25393081,21.0490273 7.98067375,21.7764955 C7.70741668,22.5039638 7.5707902,23.2472354 7.5707902,24.0063328 C7.5707902,24.7654301 7.70741668,25.5087017 7.98067375,26.23617 C8.25393081,26.9636383 8.6396997,27.6120242 9.13799199,28.1813472 C9.63628429,28.7506701 10.2390482,29.2092846 10.9463018,29.5572042 C11.6535553,29.9051238 12.4572405,30.079081 13.3573814,30.079081 C14.2896702,30.079081 15.1094291,29.9051238 15.8166827,29.5572042 C16.5239363,29.2092846 17.1186633,28.7506701 17.6008817,28.1813472 C18.0831,27.6120242 18.4447584,26.9557311 18.6858675,26.2124483 C18.9269767,25.4691655 19.0475295,24.7179867 19.0475295,23.9588894 Z M46.0021768,19.8787617 C45.5521064,19.3094387 44.9413056,18.8508243 44.1697563,18.5029047 C43.3982069,18.1549851 42.6105954,17.9810279 41.8068982,17.9810279 C40.9710531,17.9810279 40.215589,18.1470779 39.5404833,18.479183 C38.8653776,18.8112881 38.2867243,19.2540882 37.8045059,19.8075967 C37.3222876,20.3611052 36.9445555,21.0015839 36.6712985,21.7290522 C36.3980414,22.4565204 36.2614149,23.2314207 36.2614149,24.0537761 C36.2614149,24.8761315 36.3900046,25.6510318 36.6471877,26.3785 C36.9043708,27.1059683 37.2821028,27.7464471 37.7803951,28.2999555 C38.2786874,28.853464 38.8734145,29.288357 39.5645941,29.6046475 C40.2557737,29.9209381 41.0353484,30.079081 41.9033414,30.079081 C42.7070386,30.079081 43.502687,29.9288452 44.2903103,29.6283692 C45.0779336,29.3278932 45.7128449,28.8930002 46.1950632,28.3236772 L50.5832282,33.5898885 C49.5866437,34.5387602 48.3007473,35.2820318 46.7255007,35.8197258 C45.1502541,36.3574197 43.4785889,36.6262626 41.710455,36.6262626 C39.8137295,36.6262626 38.0456221,36.3416054 36.4060797,35.7722824 C34.7665373,35.2029623 33.3440145,34.3727092 32.1384687,33.2815068 C30.9329228,32.1903044 29.9845743,30.8698111 29.2933946,29.3199874 C28.602215,27.7701637 28.2566304,26.0147775 28.2566304,24.0537761 C28.2566304,22.1244037 28.602215,20.3848318 29.2933946,18.8350081 C29.9845743,17.2851844 30.9329228,15.9646912 32.1384687,14.8734888 C33.3440145,13.7822864 34.7665373,12.944129 36.4060797,12.3589915 C38.0456221,11.773854 39.7976558,11.4812896 41.6622334,11.4812896 C42.5302264,11.4812896 43.3901696,11.560361 44.2420887,11.7185063 C45.0940078,11.8766516 45.9137666,12.0901445 46.7013899,12.3589915 C47.4890132,12.6278384 48.2123299,12.9599385 48.8713617,13.3553017 C49.5303934,13.7506649 50.1010099,14.1855579 50.5832282,14.6599937 L46.0021768,19.8787617 Z M61.3737374,4.69689119 C61.3737374,5.29784324 61.2531846,5.85925054 61.0120754,6.38112995 C60.7709662,6.90300936 60.4494922,7.35371663 60.0476435,7.7332653 C59.6457949,8.11281396 59.1635838,8.41328547 58.6009957,8.63468886 C58.0384077,8.85609224 57.4517175,8.96679228 56.8409076,8.96679228 C55.554992,8.96679228 54.4780538,8.54771358 53.6100608,7.70954362 C52.7420678,6.87137366 52.3080778,5.86716623 52.3080778,4.69689119 C52.3080778,4.1275682 52.4205937,3.58197518 52.6456289,3.06009578 C52.8706642,2.53821637 53.1921382,2.08750909 53.6100608,1.70796043 C54.0279834,1.32841177 54.5101945,1.02003311 55.0567086,0.782815199 C55.6032227,0.545597286 56.1979498,0.426990108 56.8409076,0.426990108 C57.4517175,0.426990108 58.0384077,0.537690141 58.6009957,0.759093526 C59.1635838,0.980496911 59.6457949,1.28096843 60.0476435,1.66051709 C60.4494922,2.04006575 60.7709662,2.49077302 61.0120754,3.01265243 C61.2531846,3.53453184 61.3737374,4.09593915 61.3737374,4.69689119 Z M52.8867369,35.8671691 L52.8867369,12.2403831 L60.7950783,12.2403831 L60.7950783,35.8671691 L52.8867369,35.8671691 Z" id="bci" fill="#FFFFFF"></path>
                <path d="M69.382429,33.6565657 C68.9786919,33.366762 68.5943263,33.0538437 68.2293311,32.7178102 C67.0373322,31.6203945 66.091694,30.2844301 65.3923881,28.7098771 C64.6930821,27.1353241 64.3434343,25.3778948 64.3434343,23.4375366 C64.3434343,21.4971783 64.6930821,19.7477012 65.3923881,18.1890527 C66.091694,16.6304043 67.0373322,15.3103443 68.2293311,14.2288331 C69.4213299,13.147322 70.8199209,12.3202964 72.4251459,11.7477317 C74.030371,11.175167 75.7229839,10.8888889 77.5030355,10.8888889 C79.3148737,10.8888889 81.0154332,11.175167 82.604765,11.7477317 C83.508637,12.0733561 84.3508172,12.4812817 85.1313131,12.971513 L80.9115313,18.5138999 C80.6144543,18.283678 80.2888449,18.0799692 79.9347009,17.9027718 C79.235395,17.5528711 78.4248479,17.3779234 77.5030355,17.3779234 C76.5812231,17.3779234 75.7706761,17.5528711 75.0713701,17.9027718 C74.3720641,18.2526725 73.7919667,18.7059461 73.3310605,19.2626063 C72.8701543,19.8192664 72.5205066,20.4633921 72.2821068,21.1950026 C72.043707,21.9266131 71.9245089,22.6741169 71.9245089,23.4375366 C71.9245089,24.2009562 72.043707,24.9484601 72.2821068,25.6800706 C72.5205066,26.4116811 72.8781008,27.0717111 73.3549004,27.6601804 C73.4563253,27.7853598 73.5627841,27.9051413 73.6742769,28.019525 L69.3824292,33.6565654 Z" id="Combined-Shape" fill="#455EF9"></path>
                <path d="M77.2121214,26.2341549 L81.3953023,20.7034758 C81.79749,21.118823 82.2668846,21.4616293 82.8034944,21.7319013 C83.4850944,22.0751999 84.2751189,22.2468467 85.1735916,22.2468467 C86.0720643,22.2468467 86.8620888,22.0751999 87.5436888,21.7319013 C88.2252888,21.3886026 88.7984438,20.9282773 89.2631711,20.3509114 C89.7278984,19.7735455 90.0764386,19.1259691 90.3088022,18.4081628 C90.5411658,17.6903566 90.6573459,16.9569568 90.6573459,16.2079416 C90.6573459,15.4589264 90.5334205,14.7255267 90.285566,14.0077204 C90.0377114,13.2899141 89.6814259,12.657942 89.2166986,12.1117851 C88.9873195,11.8422141 88.7315253,11.5973548 88.4493139,11.3772056 L92.5622536,5.93939394 C93.1391634,6.3041506 93.6814962,6.71534885 94.1892555,7.17299063 C95.3665645,8.23409553 96.2960051,9.52924827 96.9776051,11.0584877 C97.6592051,12.5877271 98,14.3041946 98,16.2079416 C98,18.1116887 97.6592051,19.8359583 96.9776051,21.3808022 C96.2960051,22.9256461 95.3665645,24.236403 94.1892555,25.3131124 C93.0119464,26.3898218 91.6487669,27.2246492 90.099676,27.8176196 C88.5505851,28.41059 86.8930827,28.7070707 85.1271191,28.7070707 C83.3921373,28.7070707 81.7423803,28.41059 80.1777985,27.8176196 C79.0922985,27.4062193 78.103744,26.8784006 77.2121212,26.2341552 Z" id="Combined-Shape" fill="#FFFFFF"></path>
            </g>
        </g>
    </g>
</svg>