<svg id="Layer_1" data-name="Layer 1" xmlns="http://www.w3.org/2000/svg" viewBox="0 0 33.66 27.72"><defs><style>.cls-1{fill:#455ef9;}.cls-2{fill:#fff;}</style></defs><title>max-log-edited</title><g id="Subir"><g id="HOME"><g id="Logotipo"><path id="Combined-Shape" class="cls-1" d="M69.38,33.66a13.08,13.08,0,0,1-1.15-.94,12.11,12.11,0,0,1-2.84-4,12.81,12.81,0,0,1-1-5.27,12.69,12.69,0,0,1,1-5.25,11.8,11.8,0,0,1,2.84-4,12.27,12.27,0,0,1,4.2-2.48,15.46,15.46,0,0,1,10.17,0A12.58,12.58,0,0,1,85.13,13l-4.22,5.54a6,6,0,0,0-1-.61,5.47,5.47,0,0,0-6.6,1.36,5.86,5.86,0,0,0-1,1.94,7.15,7.15,0,0,0,0,4.48,6.33,6.33,0,0,0,1.07,2c.11.13.21.25.32.36Z" transform="translate(-64.34 -5.94)"/><path id="Combined-Shape-2" data-name="Combined-Shape" class="cls-2" d="M77.21,26.23,81.4,20.7a5.46,5.46,0,0,0,6.14,1,5,5,0,0,0,1.72-1.38,5.89,5.89,0,0,0,1-1.94,7.18,7.18,0,0,0,.35-2.2,6.91,6.91,0,0,0-.37-2.2,6,6,0,0,0-1.07-1.9,5.32,5.32,0,0,0-.77-.73l4.11-5.44a12.21,12.21,0,0,1,1.63,1.23A11.36,11.36,0,0,1,97,11.06a12.53,12.53,0,0,1,1,5.15,12.69,12.69,0,0,1-1,5.17,11.42,11.42,0,0,1-2.79,3.93,12.85,12.85,0,0,1-4.09,2.51,14.27,14.27,0,0,1-9.92,0A12.42,12.42,0,0,1,77.21,26.23Z" transform="translate(-64.34 -5.94)"/></g></g></g></svg>