<svg xmlns="http://www.w3.org/2000/svg" xmlns:xlink="http://www.w3.org/1999/xlink" width="34" height="28" version="1.1"><rect id="backgroundrect" width="100%" height="100%" x="0" y="0" fill="none" stroke="none" class="" style=""/>
    <!-- Generator: sketchtool 56.3 (101010) - https://sketch.com -->
    <title>6060FCA3-C035-49DE-8524-3C9946E7469C</title>
    <desc>Created with sketchtool.</desc>
    
<g class="currentLayer" style=""><title>Layer 1</title>
        
            
                
                
                
            
        
    <g class=""><path d="M5.038995202640535,27.71717170280762 C4.635258102640535,27.42736800280762 4.250892502640539,27.11444970280762 3.8858973026405295,26.77841620280762 C2.693898402640528,25.681000502807617 1.7482602026405374,24.34503610280762 1.0489543026405386,22.770483102807617 C0.3496483026405315,21.195930102807615 5.026405318631078e-7,19.438500802807617 5.026405318631078e-7,17.49814260280762 C5.026405318631078e-7,15.557784302807619 0.3496483026405315,13.808307202807619 1.0489543026405386,12.249658702807618 C1.7482602026405374,10.691010302807616 2.693898402640528,9.370950302807618 3.8858973026405295,8.289439102807616 C5.077896102640537,7.207928002807618 6.476487102640533,6.380902402807617 8.081712102640537,5.808337702807616 C9.686937202640536,5.235773002807617 11.379550102640536,4.949494902807617 13.15960170264053,4.949494902807617 C14.97143990264054,4.949494902807617 16.671999402640537,5.235773002807617 18.261331202640534,5.808337702807616 C19.165203202640527,6.133962102807617 20.007383402640528,6.541887702807617 20.787879302640533,7.032119002807617 L16.568097502640526,12.574505902807616 C16.27102050264054,12.344284002807616 15.945411102640534,12.140575202807618 15.59126710264053,11.963377802807617 C14.89196120264053,11.613477102807618 14.081414102640537,11.438529402807617 13.15960170264053,11.438529402807617 C12.237789302640536,11.438529402807617 11.427242302640536,11.613477102807618 10.72793630264053,11.963377802807617 C10.028630302640536,12.313278502807616 9.448532902640537,12.766552102807616 8.98762670264054,13.323212302807619 C8.52672050264053,13.879872402807617 8.177072802640538,14.523998102807617 7.938673002640527,15.255608602807616 C7.700273202640531,15.987219102807618 7.58107510264054,16.73472290280762 7.58107510264054,17.49814260280762 C7.58107510264054,18.261562202807617 7.700273202640531,19.009066102807616 7.938673002640527,19.740676602807618 C8.177072802640538,20.472287102807616 8.534667002640532,21.13231710280762 9.011466602640539,21.72078640280762 C9.112891502640537,21.845965802807616 9.219350302640535,21.965747302807618 9.330843102640529,22.08013100280762 L5.038995402640538,27.717171402807615 z" id="Combined-Shape" fill="#455EF9" class=""/><path d="M12.868687602640534,20.294760902807617 L17.05186850264053,14.764081802807617 C17.45405620264053,15.179429002807616 17.92345080264053,15.522235302807616 18.46006060264054,15.792507302807618 C19.141660602640528,16.13580590280762 19.93168510264053,16.307452702807616 20.830157802640528,16.307452702807616 C21.728630502640527,16.307452702807616 22.51865500264053,16.13580590280762 23.20025500264053,15.792507302807618 C23.881855002640535,15.449208602807616 24.455010002640535,14.988883302807618 24.919737302640527,14.411517402807618 C25.384464602640534,13.834151502807618 25.733004802640536,13.186575102807616 25.965368402640536,12.468768802807617 C26.197732002640535,11.750962602807618 26.31391210264053,11.017562802807618 26.31391210264053,10.268547602807619 C26.31391210264053,9.519532402807616 26.18998670264054,8.786132702807617 25.942132202640536,8.068326402807617 C25.69427760264054,7.350520102807618 25.337992102640527,6.718548002807617 24.873264802640534,6.172391102807618 C24.64388570264053,5.902820102807617 24.388091502640535,5.657960802807617 24.10588010264054,5.437811602807617 L28.21881980264054,-5.7192382385551355e-8 C28.795729602640534,0.364756602807617 29.33806240264053,0.775954852807617 29.845821702640535,1.2335966328076182 C31.02313070264053,2.294701532807615 31.952571302640536,3.5898542728076173 32.63417130264054,5.119093702807618 C33.31577130264053,6.648333102807618 33.65656620264053,8.364800602807618 33.65656620264053,10.268547602807619 C33.65656620264053,12.172294702807616 33.31577130264053,13.896564302807619 32.63417130264054,15.441408202807619 C31.952571302640536,16.98625210280762 31.02313070264053,18.297009002807616 29.845821702640535,19.37371840280762 C28.668512602640533,20.450427802807617 27.30533310264053,21.28525520280762 25.756242202640536,21.878225602807618 C24.20715130264054,22.471196002807616 22.549648902640527,22.767676702807616 20.783685302640535,22.767676702807616 C19.048703502640535,22.767676702807616 17.398946502640527,22.471196002807616 15.834364702640528,21.878225602807618 C14.748864702640532,21.466825302807617 13.76031020264054,20.939006602807616 12.868687402640532,20.294761202807617 z" id="Combined-Shape" fill="#3F3F3F" class=""/></g></g></svg>